<?xml version="1.0" encoding="UTF-8"?>
<svg version="1.1" xmlns="http://www.w3.org/2000/svg" width="1024" height="1024">
<path d="M0 0 C337.92 0 675.84 0 1024 0 C1024 337.92 1024 675.84 1024 1024 C686.08 1024 348.16 1024 0 1024 C0 686.08 0 348.16 0 0 Z " fill="#9556C6" transform="translate(0,0)"/>
<path d="M0 0 C337.92 0 675.84 0 1024 0 C1024 337.92 1024 675.84 1024 1024 C686.08 1024 348.16 1024 0 1024 C0 686.08 0 348.16 0 0 Z M229.5625 113.5625 C228.63550293 113.81225586 227.70850586 114.06201172 226.75341797 114.31933594 C198.884119 122.21260144 174.96651723 136.20019568 154 156 C153.20207031 156.73347656 152.40414062 157.46695313 151.58203125 158.22265625 C132.37776212 176.5109825 119.17473448 201.08769248 111.75 226.375 C111.51571289 227.16366455 111.28142578 227.9523291 111.04003906 228.76489258 C106.63289437 244.60247603 105.55988751 260.08193799 105.61904907 276.42953491 C105.61558483 278.53859149 105.61081516 280.64764626 105.60486734 282.7566973 C105.59243277 288.50367108 105.59849316 294.25049393 105.60782599 299.99746799 C105.61464736 306.21437119 105.60411996 312.43124944 105.59588623 318.64814758 C105.58334659 330.10708493 105.58439164 341.5659556 105.59262064 353.02489255 C105.60018742 363.6146086 105.60212807 374.20430722 105.5985527 384.79402542 C105.59832355 385.49830882 105.59809439 386.20259221 105.59785829 386.92821753 C105.59692417 389.78763914 105.59596896 392.64706075 105.594979 395.50648234 C105.58581517 422.2954724 105.5941011 449.08443218 105.61026969 475.87341756 C105.62450193 499.63470345 105.62323371 523.39594109 105.60888672 547.15722656 C105.59279544 573.89631058 105.58646833 600.63536786 105.59572351 627.37445605 C105.59668556 630.22908504 105.59762408 633.08371404 105.5985527 635.93834305 C105.59878994 636.64114748 105.59902717 637.34395191 105.59927159 638.06805344 C105.60267303 648.64552866 105.59871367 659.22298447 105.59111404 669.800457 C105.58250792 681.83831956 105.58502726 693.87611283 105.60095628 705.91397332 C105.60880854 712.04911619 105.61198283 718.18416149 105.60200882 724.31930351 C105.59299786 729.94745268 105.59809913 735.57541485 105.61394148 741.20354731 C105.61726242 743.22757598 105.6156567 745.2516208 105.60831411 747.27563886 C105.55107727 764.38008141 107.02367071 781.22209965 111.9375 797.6875 C112.37376709 799.16053589 112.37376709 799.16053589 112.81884766 800.66333008 C118.10426477 817.54648534 126.03891875 834.06081365 137 848 C137.64195312 848.84820313 138.28390625 849.69640625 138.9453125 850.5703125 C167.07117398 886.89480566 208.10961628 908.54966595 253.48008549 914.72224581 C261.42562409 915.59803212 269.44510473 915.41764546 277.42712402 915.39440918 C279.53603008 915.39930885 281.64493345 915.40550358 283.75383234 915.41286707 C289.50061489 915.42915358 295.24725925 915.42697181 300.9940567 915.4214921 C307.21108145 915.41880784 313.42807051 915.43337988 319.64508057 915.44558716 C331.80741689 915.46658559 343.96968974 915.47120392 356.13203901 915.46939927 C366.02555718 915.46802209 375.91906094 915.47186382 385.81257629 915.47932434 C387.23786856 915.48037472 388.66316082 915.48142233 390.08845308 915.4824672 C391.14985288 915.48324622 391.14985288 915.48324622 392.23269509 915.48404097 C392.941648 915.48456112 393.6506009 915.48508126 394.38103724 915.48561716 C395.44635493 915.48640315 395.44635493 915.48640315 396.53319419 915.48720502 C416.48905605 915.50177363 436.44491265 915.51007741 456.40077972 915.50545502 C457.52755045 915.50519708 457.52755045 915.50519708 458.67708423 915.50493394 C462.48367556 915.50404516 466.29026688 915.50310035 470.0968582 915.50213593 C470.85275006 915.5019449 471.60864193 915.50175387 472.3874396 915.50155704 C473.91603513 915.50116995 475.44463067 915.50077962 476.9732262 915.50038607 C500.7413052 915.49442029 524.50928672 915.50984159 548.27734375 915.54199219 C575.03187182 915.57815254 601.78633811 915.59739042 628.54089212 915.59245348 C631.3995606 915.59198357 634.25822909 915.5915733 637.11689758 915.59120178 C638.17257214 915.5910482 638.17257214 915.5910482 639.24957347 915.59089152 C649.82670434 915.58970178 660.40376796 915.60159712 670.98088074 915.62034607 C683.02701867 915.64168977 695.07297784 915.64486919 707.11913484 915.62604648 C713.25508848 915.61693929 719.39076392 915.61559052 725.52669525 915.63640213 C763.20201871 915.75558607 798.41851932 913.70070987 832.21484375 894.98681641 C833.99590616 894.00226303 835.79258805 893.05264841 837.59375 892.10546875 C855.24387521 882.63721539 870.84986852 868.84607312 883 853 C883.73863281 852.07703125 884.47726562 851.1540625 885.23828125 850.203125 C891.43797079 842.27951488 896.41479075 833.92724785 901 825 C901.34949707 824.32259766 901.69899414 823.64519531 902.05908203 822.94726562 C906.80252787 813.5540386 910.10298755 803.95803633 912.875 793.8125 C913.16133301 792.76852051 913.44766602 791.72454102 913.74267578 790.64892578 C917.70299011 775.3863554 918.29402536 760.61266212 918.26742554 744.94468689 C918.27116816 742.83964566 918.27577211 740.73460583 918.28115618 738.62956816 C918.29332585 732.87971159 918.29313287 727.12991346 918.29076743 721.38004696 C918.29035773 715.1650988 918.30141297 708.950169 918.31088257 702.73522949 C918.32746038 690.57182997 918.33301665 678.40845691 918.33410732 666.2450484 C918.33502853 656.35285729 918.33915617 646.46067243 918.34550858 636.56848335 C918.34730383 633.71484886 918.34908346 630.86121436 918.35085833 628.00757986 C918.35130043 627.2980359 918.35174252 626.58849194 918.35219802 625.85744665 C918.36449651 605.91480409 918.37240015 585.97216369 918.37151146 566.02951717 C918.3714803 565.27852063 918.37144914 564.52752408 918.37141704 563.75377006 C918.37125084 559.94793095 918.37105276 556.14209185 918.37084763 552.33625274 C918.37080774 551.58048201 918.37076785 550.82471128 918.37072675 550.04603841 C918.37064587 548.51768723 918.37056228 546.98933605 918.37047596 545.46098487 C918.36925103 521.69344785 918.38425714 497.92596795 918.41162109 474.15844727 C918.44239613 447.41753593 918.45955033 420.6766621 918.45769465 393.93573195 C918.4575454 391.07989697 918.45744798 388.22406199 918.45738602 385.36822701 C918.45736271 384.66511792 918.4573394 383.96200884 918.45731538 383.23759342 C918.45725405 371.96293538 918.4699809 360.68832727 918.48725055 349.41368404 C918.50427117 338.06628597 918.5057901 326.71897997 918.4930319 315.37156903 C918.48652499 309.23414118 918.48630253 303.09689271 918.5037384 296.95948219 C918.51957508 291.32674978 918.51649827 285.69433742 918.49917014 280.06161232 C918.49612342 278.03812801 918.49964324 276.01461918 918.51089029 273.99116384 C918.60546755 255.74844586 916.35561846 237.90590082 910.25 220.625 C909.90638428 219.62734619 909.56276855 218.62969238 909.20874023 217.60180664 C906.16377318 209.0022538 902.48415392 200.93544092 898 193 C897.46439453 192.03610352 897.46439453 192.03610352 896.91796875 191.05273438 C892.03610656 182.33265899 886.62145013 174.52279937 880 167 C879.29230469 166.17113281 878.58460938 165.34226563 877.85546875 164.48828125 C847.63164351 129.79895391 804.22778023 112.02914419 759 108 C756.07419882 107.87260863 753.15448353 107.8617896 750.22621727 107.86857224 C749.38697842 107.8665196 748.54773956 107.86446697 747.68306923 107.86235213 C744.8821528 107.85671577 742.08128606 107.85813521 739.28036499 107.85955811 C737.24721267 107.85697252 735.21406086 107.85395882 733.18090975 107.8505547 C727.60186644 107.84250381 722.02283601 107.84069619 716.44378757 107.83995724 C710.42299621 107.83810328 704.40221147 107.83055408 698.38142395 107.82382202 C684.53132638 107.80954284 670.6812306 107.80371316 656.83112747 107.79913008 C649.97884239 107.79679087 643.12655815 107.7931878 636.27427372 107.7894347 C612.79369698 107.77659964 589.31312069 107.76588189 565.83254051 107.7624321 C564.35944399 107.76221047 562.88634748 107.76198869 561.41325096 107.76176675 C559.93669461 107.76154611 558.46013825 107.76132563 556.9835819 107.7611053 C554.02160668 107.76066276 551.05963147 107.76021564 548.09765625 107.75976562 C546.9960657 107.75960154 546.9960657 107.75960154 545.8722208 107.75943414 C522.08472343 107.75580732 498.29725661 107.73990122 474.50977093 107.71657526 C449.32961733 107.69192907 424.14948117 107.67825698 398.96931517 107.67706418 C396.2001512 107.67689274 393.43098724 107.67667732 390.66182327 107.67642975 C389.98003302 107.67637398 389.29824276 107.67631821 388.5957922 107.67626075 C377.66504767 107.67511428 366.7343347 107.66412651 355.8036008 107.64954269 C344.79601359 107.63511143 333.78846116 107.63222843 322.78086625 107.63998267 C316.82768157 107.6438716 310.87460211 107.64304617 304.92143059 107.62892532 C299.45560942 107.61607995 293.98997139 107.61747604 288.52415009 107.62951604 C286.56237911 107.63145483 284.60059467 107.62848042 282.63884251 107.61967167 C264.86415724 107.54500839 246.77431485 108.83634698 229.5625 113.5625 Z " fill="#FEFEFE" transform="translate(0,0)"/>
<path d="M0 0 C1.04985077 -0.00525696 2.09970154 -0.01051392 3.18136597 -0.01593018 C6.63351554 -0.02907666 10.08519967 -0.02041013 13.53735352 -0.01025391 C15.94816679 -0.01227632 18.35897946 -0.01518916 20.76979065 -0.01895142 C25.81582479 -0.02336767 30.8616993 -0.0169666 35.90771484 -0.00292969 C42.36146235 0.01415233 48.81483526 0.00432246 55.26856899 -0.01364708 C60.24525246 -0.02451151 65.22184782 -0.02102617 70.19853401 -0.0132637 C72.57747505 -0.01126858 74.9564242 -0.01369668 77.33535576 -0.02070236 C80.66649294 -0.02835943 83.99703211 -0.01665211 87.328125 0 C88.78958199 -0.00910904 88.78958199 -0.00910904 90.28056335 -0.0184021 C98.71934405 0.05936615 106.36919307 1.56676002 112.65454102 7.54443359 C118.3076652 14.16546242 120.02796182 20.70607433 119.64282227 29.34130859 C118.57755279 37.18008399 114.24279047 42.45929322 108.22875977 47.38818359 C102.79860204 50.64627823 97.9755142 51.52084703 91.70922852 51.48583984 C90.78779053 51.48334229 89.86635254 51.48084473 88.91699219 51.47827148 C87.76175049 51.46916748 86.60650879 51.46006348 85.41625977 51.45068359 C79.87844727 51.41974609 79.87844727 51.41974609 74.22875977 51.38818359 C74.22875977 60.62818359 74.22875977 69.86818359 74.22875977 79.38818359 C78.51875977 79.71818359 82.80875977 80.04818359 87.22875977 80.38818359 C91.28433133 81.04704991 95.27289873 81.74787225 99.29125977 82.57568359 C100.37125244 82.79708008 101.45124512 83.01847656 102.56396484 83.24658203 C154.4553627 94.21294627 206.19126342 123.13291458 240.22875977 164.38818359 C241.03313477 165.30470703 241.83750977 166.22123047 242.66625977 167.16552734 C264.43049148 192.03837217 281.97739465 221.92614022 292.22875977 253.38818359 C292.50671387 254.2333252 292.78466797 255.0784668 293.07104492 255.94921875 C314.33013705 321.69600231 309.26977919 395.23606682 277.93530273 456.93505859 C267.15775567 477.74143831 253.75073593 496.62129388 237.72485352 513.70458984 C235.59816154 515.99103333 233.55803416 518.31805444 231.54125977 520.70068359 C228.77718928 523.87352507 225.84002045 526.64655819 222.62719727 529.36083984 C220.79557149 530.90907075 218.99583028 532.47719287 217.20532227 534.07177734 C190.45385754 557.72764267 158.97847036 574.97715613 125.22875977 586.38818359 C123.93301025 586.82686768 123.93301025 586.82686768 122.61108398 587.27441406 C101.91943381 594.1018942 78.68192446 598.47490228 56.88500977 598.59130859 C56.00661438 598.59832291 55.12821899 598.60533722 54.22320557 598.61256409 C51.39167121 598.63002516 48.56034604 598.63641976 45.72875977 598.63818359 C44.27814148 598.63919571 44.27814148 598.63919571 42.79821777 598.64022827 C28.07074466 598.6238902 13.74161152 598.08736847 -0.77124023 595.38818359 C-1.66939453 595.2325293 -2.56754883 595.076875 -3.49291992 594.91650391 C-46.27764892 587.36093492 -85.83046768 568.21817425 -119.77124023 541.38818359 C-120.80893555 540.57607422 -121.84663086 539.76396484 -122.91577148 538.92724609 C-137.90311532 526.72958757 -152.21848742 512.7317216 -163.55737305 497.05078125 C-164.836174 495.29924576 -166.15476098 493.58358461 -167.48217773 491.86865234 C-174.85646968 482.24006326 -180.97363561 472.02932768 -186.77124023 461.38818359 C-187.13314453 460.7277002 -187.49504883 460.0672168 -187.86791992 459.38671875 C-201.65246277 433.9215896 -210.61037618 406.0082149 -214.77124023 377.38818359 C-214.95025879 376.1691333 -215.12927734 374.95008301 -215.3137207 373.6940918 C-216.77193693 362.64765212 -217.11169774 351.74208787 -217.08691406 340.60595703 C-217.08375863 337.6553835 -217.10730261 334.70582148 -217.13256836 331.75537109 C-217.17592942 318.71794329 -215.98237162 306.22865151 -213.77124023 293.38818359 C-213.49703247 291.70088135 -213.49703247 291.70088135 -213.21728516 289.97949219 C-206.04070677 247.66280318 -187.2674353 208.90669435 -160.77124023 175.38818359 C-159.95913086 174.35048828 -159.14702148 173.31279297 -158.31030273 172.24365234 C-152.38577684 164.96414813 -145.88121214 158.29693329 -139.27124023 151.63818359 C-138.4050708 150.76266846 -137.53890137 149.88715332 -136.64648438 148.98510742 C-98.92182406 111.44507603 -39.90028868 79.38818359 14.22875977 79.38818359 C14.22875977 70.14818359 14.22875977 60.90818359 14.22875977 51.38818359 C6.78014251 51.54513243 6.78014251 51.54513243 -0.66723633 51.74853516 C-9.54923153 51.84198225 -16.94885015 50.23346727 -23.64624023 44.13818359 C-29.63387971 37.42863013 -31.53188489 31.71314474 -31.21655273 22.64208984 C-30.18722917 15.12080448 -26.65374388 9.49054813 -20.90795898 4.64208984 C-13.97444189 0.57324343 -7.86964362 -0.0489486 0 0 Z " fill="#8D54C8" transform="translate(467.771240234375,198.61181640625)"/>
<path d="M0 0 C1.04985077 -0.00525696 2.09970154 -0.01051392 3.18136597 -0.01593018 C6.63351554 -0.02907666 10.08519967 -0.02041013 13.53735352 -0.01025391 C15.94816679 -0.01227632 18.35897946 -0.01518916 20.76979065 -0.01895142 C25.81582479 -0.02336767 30.8616993 -0.0169666 35.90771484 -0.00292969 C42.36146235 0.01415233 48.81483526 0.00432246 55.26856899 -0.01364708 C60.24525246 -0.02451151 65.22184782 -0.02102617 70.19853401 -0.0132637 C72.57747505 -0.01126858 74.9564242 -0.01369668 77.33535576 -0.02070236 C80.66649294 -0.02835943 83.99703211 -0.01665211 87.328125 0 C88.78958199 -0.00910904 88.78958199 -0.00910904 90.28056335 -0.0184021 C98.71934405 0.05936615 106.36919307 1.56676002 112.65454102 7.54443359 C118.3076652 14.16546242 120.02796182 20.70607433 119.64282227 29.34130859 C118.57755279 37.18008399 114.24279047 42.45929322 108.22875977 47.38818359 C102.79860204 50.64627823 97.9755142 51.52084703 91.70922852 51.48583984 C90.78779053 51.48334229 89.86635254 51.48084473 88.91699219 51.47827148 C87.76175049 51.46916748 86.60650879 51.46006348 85.41625977 51.45068359 C79.87844727 51.41974609 79.87844727 51.41974609 74.22875977 51.38818359 C74.22875977 60.62818359 74.22875977 69.86818359 74.22875977 79.38818359 C78.51875977 79.71818359 82.80875977 80.04818359 87.22875977 80.38818359 C91.28433133 81.04704991 95.27289873 81.74787225 99.29125977 82.57568359 C100.37125244 82.79708008 101.45124512 83.01847656 102.56396484 83.24658203 C154.4553627 94.21294627 206.19126342 123.13291458 240.22875977 164.38818359 C241.03313477 165.30470703 241.83750977 166.22123047 242.66625977 167.16552734 C264.43049148 192.03837217 281.97739465 221.92614022 292.22875977 253.38818359 C292.50671387 254.2333252 292.78466797 255.0784668 293.07104492 255.94921875 C314.33013705 321.69600231 309.26977919 395.23606682 277.93530273 456.93505859 C267.15775567 477.74143831 253.75073593 496.62129388 237.72485352 513.70458984 C235.59816154 515.99103333 233.55803416 518.31805444 231.54125977 520.70068359 C228.77718928 523.87352507 225.84002045 526.64655819 222.62719727 529.36083984 C220.79557149 530.90907075 218.99583028 532.47719287 217.20532227 534.07177734 C190.45385754 557.72764267 158.97847036 574.97715613 125.22875977 586.38818359 C123.93301025 586.82686768 123.93301025 586.82686768 122.61108398 587.27441406 C101.91943381 594.1018942 78.68192446 598.47490228 56.88500977 598.59130859 C56.00661438 598.59832291 55.12821899 598.60533722 54.22320557 598.61256409 C51.39167121 598.63002516 48.56034604 598.63641976 45.72875977 598.63818359 C44.27814148 598.63919571 44.27814148 598.63919571 42.79821777 598.64022827 C28.07074466 598.6238902 13.74161152 598.08736847 -0.77124023 595.38818359 C-1.66939453 595.2325293 -2.56754883 595.076875 -3.49291992 594.91650391 C-46.27764892 587.36093492 -85.83046768 568.21817425 -119.77124023 541.38818359 C-120.80893555 540.57607422 -121.84663086 539.76396484 -122.91577148 538.92724609 C-137.90311532 526.72958757 -152.21848742 512.7317216 -163.55737305 497.05078125 C-164.836174 495.29924576 -166.15476098 493.58358461 -167.48217773 491.86865234 C-174.85646968 482.24006326 -180.97363561 472.02932768 -186.77124023 461.38818359 C-187.13314453 460.7277002 -187.49504883 460.0672168 -187.86791992 459.38671875 C-201.65246277 433.9215896 -210.61037618 406.0082149 -214.77124023 377.38818359 C-214.95025879 376.1691333 -215.12927734 374.95008301 -215.3137207 373.6940918 C-216.77193693 362.64765212 -217.11169774 351.74208787 -217.08691406 340.60595703 C-217.08375863 337.6553835 -217.10730261 334.70582148 -217.13256836 331.75537109 C-217.17592942 318.71794329 -215.98237162 306.22865151 -213.77124023 293.38818359 C-213.49703247 291.70088135 -213.49703247 291.70088135 -213.21728516 289.97949219 C-206.04070677 247.66280318 -187.2674353 208.90669435 -160.77124023 175.38818359 C-159.95913086 174.35048828 -159.14702148 173.31279297 -158.31030273 172.24365234 C-152.38577684 164.96414813 -145.88121214 158.29693329 -139.27124023 151.63818359 C-138.4050708 150.76266846 -137.53890137 149.88715332 -136.64648438 148.98510742 C-98.92182406 111.44507603 -39.90028868 79.38818359 14.22875977 79.38818359 C14.22875977 70.14818359 14.22875977 60.90818359 14.22875977 51.38818359 C6.78014251 51.54513243 6.78014251 51.54513243 -0.66723633 51.74853516 C-9.54923153 51.84198225 -16.94885015 50.23346727 -23.64624023 44.13818359 C-29.63387971 37.42863013 -31.53188489 31.71314474 -31.21655273 22.64208984 C-30.18722917 15.12080448 -26.65374388 9.49054813 -20.90795898 4.64208984 C-13.97444189 0.57324343 -7.86964362 -0.0489486 0 0 Z M14.22875977 128.38818359 C12.97530762 128.58154297 12.97530762 128.58154297 11.6965332 128.77880859 C-30.14909771 135.33093348 -68.06577366 153.35565389 -99.77124023 181.38818359 C-100.68776367 182.18224609 -101.60428711 182.97630859 -102.54858398 183.79443359 C-107.73654556 188.35047804 -112.35849238 193.08721668 -116.77124023 198.38818359 C-117.50729492 199.22478516 -118.24334961 200.06138672 -119.00170898 200.92333984 C-141.90949052 227.4002193 -157.65885481 259.91421522 -165.02124023 294.07568359 C-165.17238281 294.77435547 -165.32352539 295.47302734 -165.47924805 296.19287109 C-168.16301704 309.49661082 -169.12467684 322.66023899 -169.02124023 336.20068359 C-169.01780609 336.94241821 -169.01437195 337.68415283 -169.01083374 338.44836426 C-168.71254439 393.57341983 -148.12342664 444.66038074 -109.77124023 484.38818359 C-108.85299686 485.36969758 -107.93503188 486.35147207 -107.01733398 487.33349609 C-99.05330485 495.71545862 -90.14239998 502.64660828 -80.77124023 509.38818359 C-79.821604 510.07291748 -79.821604 510.07291748 -78.8527832 510.77148438 C-61.84071231 522.89580944 -43.36481585 531.31252089 -23.77124023 538.38818359 C-23.05935547 538.64970215 -22.3474707 538.9112207 -21.61401367 539.18066406 C16.2605429 552.88665 61.63998547 553.70362728 100.22875977 542.38818359 C101.55544678 542.00001465 101.55544678 542.00001465 102.90893555 541.60400391 C138.8842841 530.8314837 169.14651466 512.13714894 196.22875977 486.38818359 C196.88102539 485.77716797 197.53329102 485.16615234 198.20532227 484.53662109 C233.58350056 450.45079634 255.47632474 398.17608835 256.46957397 349.35102844 C256.50304071 346.15013873 256.50630684 342.9502754 256.48950195 339.74926758 C256.47874927 337.32331465 256.48949478 334.89809925 256.50219727 332.47216797 C256.54357785 290.26637195 242.18648197 248.34647626 217.22875977 214.38818359 C216.79998535 213.79408691 216.37121094 213.19999023 215.92944336 212.58789062 C210.03901779 204.45896545 203.49643721 197.03128209 196.56274414 189.78515625 C195.42517303 188.59387113 194.30197753 187.38888595 193.18188477 186.18115234 C187.63375867 180.36036193 181.30747982 175.52811764 174.92016602 170.67382812 C173.43347292 169.54378687 171.95540412 168.40241822 170.47875977 167.25927734 C127.16386168 134.57501735 67.76482691 119.7206637 14.22875977 128.38818359 Z " fill="#FEFEFE" transform="translate(467.771240234375,198.61181640625)"/>
<path d="M0 0 C4.89159105 4.53366976 7.02108147 8.6048463 7.71069336 15.22070312 C7.82033747 16.24433331 7.82033747 16.24433331 7.93219662 17.28864288 C8.87987748 26.6531015 9.40570741 36.0599964 9.98044014 45.45292664 C10.34589611 51.32683993 10.74664878 57.1983882 11.14257812 63.0703125 C11.64326925 70.49971706 12.13274118 77.92919341 12.57543945 85.36230469 C12.93678651 91.41358936 13.33906553 97.46092373 13.7690258 103.50770569 C13.92458852 105.7999759 14.06528279 108.09330755 14.19049263 110.38743591 C14.39264823 122.47141062 14.39264823 122.47141062 18.61032104 133.42333984 C20.90200203 135.55304103 20.90200203 135.55304103 23.35411072 136.96569824 C27.50038764 139.61167892 29.4402719 144.06252367 31.5625 148.375 C31.9028125 149.04789063 32.243125 149.72078125 32.59375 150.4140625 C36.80043007 160.50230451 35.71751908 173.81248606 31.8203125 183.80078125 C29.86306535 187.80645166 27.53750271 191.06790396 24.5625 194.375 C23.98757813 195.05304688 23.41265625 195.73109375 22.8203125 196.4296875 C16.60384179 203.26522583 7.84059332 208.70643096 -1.53710938 209.56787109 C-15.94638278 210.0851753 -26.93410731 208.92199714 -38.40625 199.3203125 C-48.03566826 190.0982927 -53.27119015 178.76090465 -53.75 165.4375 C-53.42290167 152.23090502 -46.59827576 141.43995174 -37.4375 132.375 C-35.9525 131.385 -35.9525 131.385 -34.4375 130.375 C-33.98347279 127.52521398 -33.72465585 124.86174962 -33.57788086 121.99169922 C-33.52213394 121.12287613 -33.46638702 120.25405304 -33.40895081 119.35890198 C-33.22666645 116.4664861 -33.06462316 113.57328913 -32.90234375 110.6796875 C-32.77822075 108.65487677 -32.65275718 106.63014782 -32.52601624 104.60549927 C-32.19381167 99.24613811 -31.87832398 93.88592257 -31.56671143 88.52532959 C-31.25294925 83.16480113 -30.92639184 77.8050606 -30.59960938 72.4453125 C-30.53625711 71.40549351 -30.47290485 70.36567451 -30.40763283 69.29434586 C-30.28109652 67.21909372 -30.15444268 65.14384874 -30.027668 63.06861115 C-29.90258827 61.01989677 -29.77778856 58.97116529 -29.65327072 56.92241669 C-28.24294714 33.73420812 -28.24294714 33.73420812 -27.37890625 22.8203125 C-27.3115477 21.91771698 -27.24418915 21.01512146 -27.17478943 20.08517456 C-26.57427631 12.97525806 -25.69639116 6.63389116 -20.4375 1.375 C-14.34842308 -2.93190806 -6.63684804 -3.13741907 0 0 Z " fill="#FEFDFE" transform="translate(521.4375,371.625)"/>
<path d="M0 0 C0.83731984 -0.00175304 1.67463969 -0.00350607 2.53733286 -0.00531223 C5.35572093 -0.0099808 8.1740576 -0.00750451 10.99244785 -0.00507832 C13.02856204 -0.00694587 15.06467587 -0.00924635 17.10078913 -0.01194364 C22.7062469 -0.0180752 28.31168978 -0.01792644 33.91715014 -0.01674926 C39.95897028 -0.01654559 46.00078559 -0.02206091 52.04260349 -0.02680683 C63.88517483 -0.03512208 75.72774136 -0.03787504 87.57031488 -0.03841921 C97.19774698 -0.03887869 106.82517748 -0.04093674 116.45260906 -0.04411983 C119.22361916 -0.04501739 121.99462926 -0.0459072 124.76563936 -0.04679471 C125.7989749 -0.04712628 125.7989749 -0.04712628 126.85318591 -0.04746456 C146.23496121 -0.05362015 165.61673595 -0.057565 184.99851227 -0.05712128 C186.0949113 -0.05709791 186.0949113 -0.05709791 187.21345981 -0.05707407 C190.9181261 -0.05699096 194.62279239 -0.05689192 198.32745867 -0.05678936 C199.43109368 -0.05675944 199.43109368 -0.05675944 200.55702435 -0.05672892 C202.04490623 -0.05668848 203.53278812 -0.05664669 205.02067001 -0.05660353 C228.15543904 -0.05599115 251.2901934 -0.06348986 274.42495823 -0.07717609 C300.41932999 -0.0925477 326.41369212 -0.10114161 352.40806872 -0.10021287 C355.18190801 -0.10013824 357.95574731 -0.10008954 360.7295866 -0.10005856 C361.7540612 -0.10004107 361.7540612 -0.10004107 362.79923225 -0.10002324 C373.7765975 -0.0999925 384.75394999 -0.10637077 395.73131146 -0.11499082 C406.77283248 -0.12348162 417.81433863 -0.12427508 428.85586213 -0.1178815 C434.83420973 -0.11461772 440.81251124 -0.11455448 446.79085445 -0.12323475 C452.26928437 -0.13110716 457.7476317 -0.12966066 463.22605962 -0.12095062 C465.20259338 -0.11941724 467.17913332 -0.12122565 469.15565979 -0.12681069 C479.87333742 -0.15507707 490.11718769 0.19372483 500.69326878 2.12863445 C500.69326878 2.45863445 500.69326878 2.78863445 500.69326878 3.12863445 C499.43514378 3.31425945 498.17701878 3.49988445 496.88076878 3.69113445 C496.17307346 3.79554852 495.46537815 3.89996258 494.73623753 4.0075407 C492.69326878 4.12863445 492.69326878 4.12863445 489.69326878 3.12863445 C486.94336973 3.02880646 484.2187037 2.98644974 481.46858788 2.98996925 C480.61587438 2.98712704 479.76316088 2.98428482 478.88460758 2.98135647 C476.00195549 2.97297595 473.1193434 2.97173864 470.23668003 2.97041607 C468.1593153 2.965853 466.0819515 2.96085336 464.00458878 2.9554525 C458.27637722 2.9418329 452.54817162 2.93444201 446.81994808 2.92802584 C440.65020189 2.92003864 434.48046817 2.90633511 428.31073093 2.89331341 C417.61466737 2.87152676 406.91860325 2.85335572 396.22252941 2.83770847 C385.00204399 2.82127899 373.78156503 2.8028011 362.56108761 2.7815752 C361.8639614 2.7802576 361.16683519 2.77893999 360.44858394 2.77758245 C356.90836817 2.77088056 353.36815247 2.76414195 349.82793679 2.7573892 C324.73935255 2.70960031 299.65076228 2.66642271 274.56216526 2.62594891 C250.18585871 2.58661366 225.80955716 2.54519469 201.43325901 2.50094891 C200.68214347 2.49958638 199.93102792 2.49822385 199.1571513 2.49682003 C191.61427992 2.48313489 184.07140863 2.46940733 176.52853739 2.45564869 C161.1622396 2.42762061 145.79594129 2.39987574 130.42964268 2.37230206 C129.36981909 2.37039976 129.36981909 2.37039976 128.28858492 2.36845903 C81.09015431 2.28377409 33.89171236 2.20571192 -13.30673122 2.12863445 C-13.30673122 1.79863445 -13.30673122 1.46863445 -13.30673122 1.12863445 C-8.87205285 0.02723419 -4.53948023 -0.01200761 0 0 Z " fill="#A75AB8" transform="translate(272.30673122406006,107.87136554718018)"/>
<path d="M0 0 C0.33 0 0.66 0 1 0 C1.00173625 1.0493586 1.0034725 2.0987172 1.00526136 3.17987454 C1.0818305 49.41768143 1.15962236 95.65548607 1.2436676 141.89328003 C1.24493928 142.59309125 1.24621096 143.29290246 1.24752118 144.01392008 C1.27516432 159.22201258 1.30302734 174.43010467 1.33111694 189.63819636 C1.34489036 197.09603708 1.35861518 204.55387789 1.37231445 212.01171875 C1.37367854 212.75387101 1.37504262 213.49602328 1.37644804 214.26066501 C1.42065414 238.32412142 1.46164988 262.387582 1.50098413 286.45104683 C1.54141575 311.17548879 1.5850795 335.89992298 1.63282111 360.62435195 C1.63955985 364.11499429 1.64626157 367.60563669 1.65294075 371.09627914 C1.65425648 371.7833004 1.65557221 372.47032165 1.6569278 373.17816172 C1.6780282 384.24570675 1.69571253 395.31325475 1.71212531 406.38080761 C1.72869083 417.50233877 1.74892121 428.62385957 1.77266841 439.74537797 C1.78543166 445.7733139 1.79656734 451.8012416 1.80341911 457.82918739 C1.80972247 463.34377626 1.82055047 468.85833673 1.8350333 474.37291001 C1.83947382 476.37165455 1.84222949 478.37040366 1.84316199 480.36915292 C1.84466883 483.07942818 1.85222991 485.78962101 1.8613348 488.49987984 C1.86031213 489.28147744 1.85928946 490.06307504 1.85823581 490.86835742 C1.87930578 495.02367606 2.25082024 498.91733247 3 503 C2.979375 503.99 2.95875 504.98 2.9375 506 C2.85145734 508.98662087 2.85145734 508.98662087 3.875 511.625 C5.25599998 515.76799994 5.87185967 519.88662561 6.53515625 524.1953125 C6.91960608 526.51493416 7.40955022 528.72794926 8 531 C8.11859375 531.62777344 8.2371875 532.25554688 8.359375 532.90234375 C10.40786772 543.57499081 15.05067155 553.42842731 19.7644043 563.15087891 C22 567.79818936 22 567.79818936 22 570 C22.66 570 23.32 570 24 570 C24.495 572.475 24.495 572.475 25 575 C25.66 575 26.32 575 27 575 C28.40234375 577.046875 28.40234375 577.046875 29.9375 579.75 C31.79575179 583.00075249 33.69068578 586.04959258 36 589 C35.67 589.66 35.34 590.32 35 591 C28.48257244 582.76269572 22.89043764 574.30487912 18 565 C17.66613281 564.37561035 17.33226563 563.7512207 16.98828125 563.10791016 C12.41084142 554.43313554 9.000593 545.58258184 6.1875 536.1875 C5.90962646 535.27693848 5.63175293 534.36637695 5.34545898 533.42822266 C0.58123906 516.67011169 -0.44268853 499.78291872 -0.36076355 482.46112061 C-0.36207524 480.36495893 -0.36470831 478.26879774 -0.36853105 476.17263913 C-0.37517661 470.47136837 -0.36332598 464.77026963 -0.34819686 459.06902075 C-0.33515426 452.89889924 -0.33963174 446.72878622 -0.34190369 440.55865479 C-0.34347125 429.88796154 -0.33422204 419.21732921 -0.31719017 408.54665375 C-0.29938933 397.36534105 -0.28788233 386.18405046 -0.28463173 375.00272369 C-0.28442551 374.30537971 -0.28421929 373.60803573 -0.28400682 372.88956011 C-0.28299171 369.34755666 -0.2820876 365.8055532 -0.2812262 362.26354972 C-0.27493862 337.22874472 -0.25476486 312.1939685 -0.22631836 287.15917969 C-0.19872906 262.85058748 -0.1774959 238.54200318 -0.16479492 214.23339844 C-0.16440034 213.48302478 -0.16400576 212.73265113 -0.16359923 211.95953887 C-0.15964339 204.42341776 -0.15581599 196.8872966 -0.15208265 189.35117537 C-0.14447568 174.00163359 -0.13601193 158.65209231 -0.12702942 143.30255127 C-0.12661755 142.59693065 -0.12620568 141.89131003 -0.12578133 141.16430697 C-0.09821737 94.10952577 -0.05062354 47.05476145 0 0 Z " fill="#4D23D6" transform="translate(106,262)"/>
<path d="M0 0 C3.52238047 1.56367357 6.27123994 3.69495889 9.25 6.125 C10.14203125 6.84945312 11.0340625 7.57390625 11.953125 8.3203125 C12.62859375 8.87460937 13.3040625 9.42890625 14 10 C14.66 9.67 15.32 9.34 16 9 C16.33 10.32 16.66 11.64 17 13 C17.8353125 13.1546875 17.8353125 13.1546875 18.6875 13.3125 C21.46190045 14.13732175 23.53109239 15.48842391 26 17 C32.09158715 20.50897878 38.16027236 23.63134577 44.734375 26.1328125 C46.68212667 26.87833124 48.59560179 27.71232223 50.5 28.5625 C54.11270005 30.04628752 57.72261531 31.17812465 61.47265625 32.25390625 C63.26763825 32.78380047 65.04950694 33.35904185 66.8203125 33.96484375 C70.44845507 35.14599581 74.10600466 36.1056901 77.8125 37 C78.45380859 37.165 79.09511719 37.33 79.75585938 37.5 C97.0114491 41.6556265 114.6424354 41.30948245 132.26598537 41.31667423 C136.07010725 41.3204107 139.87418702 41.33558651 143.67828369 41.34928894 C150.2499655 41.37143388 156.82163207 41.3865234 163.39334297 41.39665604 C172.89462615 41.4113161 182.39585619 41.43687284 191.89710795 41.46498732 C207.31672644 41.51032308 222.73635263 41.54699215 238.15600586 41.578125 C253.12411856 41.60836493 268.09221247 41.64273998 283.06030273 41.68261719 C283.98479206 41.68507874 284.90928139 41.68754028 285.86178554 41.69007643 C290.50023109 41.70245208 295.13867643 41.71490841 299.77712166 41.72740483 C338.18472167 41.83077448 376.59234453 41.92004267 415 42 C415 42.33 415 42.66 415 43 C374.7357877 43.09173844 334.47158913 43.16213131 294.20729303 43.20426132 C289.44385924 43.2092636 284.68042566 43.21444094 279.91699219 43.21972656 C278.49463926 43.22130043 278.49463926 43.22130043 277.04355194 43.22290608 C261.72948125 43.240268 246.41547119 43.27178223 231.10143636 43.30861118 C215.36478122 43.34613829 199.62815763 43.36826061 183.89145958 43.37635398 C174.19647052 43.38181746 164.50165288 43.3990153 154.80671664 43.43166587 C148.14074807 43.45295942 141.47486693 43.45916685 134.8088669 43.45400551 C130.97421965 43.45146656 127.13986995 43.45510247 123.30527687 43.4768219 C80.13873117 43.70889308 36.26076981 33.16713661 3 4 C1.1484375 1.7109375 1.1484375 1.7109375 0 0 Z " fill="#663CE4" transform="translate(160,872)"/>
<path d="M0 0 C2.38162317 2.38162317 2.60120778 3.75653925 3.375 7.00390625 C3.63273193 8.04240723 3.89046387 9.0809082 4.15600586 10.15087891 C4.43452393 11.27671387 4.71304199 12.40254883 5 13.5625 C10.01385394 32.95227646 17.50200262 51.38012233 27 69 C27.33821777 69.64163086 27.67643555 70.28326172 28.02490234 70.94433594 C36.1643583 86.34453507 46.09156154 100.37651562 57.61743164 113.42822266 C58.61426684 114.561478 59.6019454 115.70281093 60.58374023 116.84912109 C64.98491052 121.96343527 69.6391934 126.75876384 74.4375 131.5 C75.16904297 132.22703125 75.90058594 132.9540625 76.65429688 133.703125 C78.43389824 135.47109499 80.21580918 137.23666378 82 139 C79 139 79 139 76.625 136.75 C75.75875 135.8425 74.8925 134.935 74 134 C73.21625 133.401875 72.4325 132.80375 71.625 132.1875 C67.9811911 129.15099258 65.06544183 125.60678581 62 122 C60.75267089 120.56018183 59.5027459 119.12260765 58.25 117.6875 C57.69828125 117.05199219 57.1465625 116.41648437 56.578125 115.76171875 C55.57344495 114.6401576 54.53531862 113.5470827 53.45703125 112.49609375 C51.39065703 110.37432076 49.8401161 107.96951723 48.18359375 105.5234375 C47.05894057 103.84949692 47.05894057 103.84949692 45 103 C44.67 102.01 44.34 101.02 44 100 C43.01 99.505 43.01 99.505 42 99 C42 98.01 42 97.02 42 96 C41.34 96 40.68 96 40 96 C39.72027344 95.46632813 39.44054687 94.93265625 39.15234375 94.3828125 C36.8127801 90.03468457 34.32238988 85.94774564 31.4375 81.9375 C28.46500134 77.76321694 26.17489054 73.62261681 24 69 C23.1625796 67.3352486 22.32485102 65.67064689 21.48266602 64.00830078 C18.94848874 58.99373615 16.45751891 53.95761115 14.0625 48.875 C13.66160156 48.02679687 13.26070313 47.17859375 12.84765625 46.3046875 C12 44 12 44 12 40 C11.34 40 10.68 40 10 40 C9.81824219 39.28714844 9.63648438 38.57429687 9.44921875 37.83984375 C9.19785156 36.88207031 8.94648438 35.92429687 8.6875 34.9375 C8.32205078 33.52791016 8.32205078 33.52791016 7.94921875 32.08984375 C7.03907313 28.91282107 7.03907313 28.91282107 5.53125 25.66796875 C3.83739879 21.61050374 2.78300786 17.64976614 1.8125 13.375 C1.63525391 12.63765625 1.45800781 11.9003125 1.27539062 11.140625 C0.39696478 7.35559316 -0.22433892 3.9143273 0 0 Z " fill="#6B47DB" transform="translate(255,591)"/>
<path d="M0 0 C9.30116619 4.40581557 16.46265058 11.12656219 24 18 C24.82757812 18.7425 25.65515625 19.485 26.5078125 20.25 C51.21272067 43.58747783 70.10536301 80.87957958 72.18359375 115.015625 C72.18673169 117.01135272 72.10676103 119.00712743 72 121 C71.67 121 71.34 121 71 121 C70.79503906 119.90300781 70.59007812 118.80601562 70.37890625 117.67578125 C70.10678707 116.22135113 69.83465075 114.76692422 69.5625 113.3125 C69.42779297 112.59126953 69.29308594 111.87003906 69.15429688 111.12695312 C67.86800229 104.25625765 66.38462068 97.50940565 64.62109375 90.7421875 C64 88 64 88 64 85 C63.34 85 62.68 85 62 85 C61.71125 83.783125 61.4225 82.56625 61.125 81.3125 C60.50829236 78.81923911 59.83246011 76.58115027 58.875 74.1875 C58 72 58 72 58 69 C57.01 68.505 57.01 68.505 56 68 C54.73714983 65.74553538 53.56796952 63.50671067 52.4375 61.1875 C52.12103516 60.55779297 51.80457031 59.92808594 51.47851562 59.27929688 C49.97466992 56.23648381 48.61636877 53.35203292 48 50 C47.34 50 46.68 50 46 50 C45.65388672 49.22076172 45.65388672 49.22076172 45.30078125 48.42578125 C43.10554153 43.73161251 40.79667536 40.60197406 37 37 C36.55398438 36.24074219 36.10796875 35.48148438 35.6484375 34.69921875 C31.21529332 27.44020778 24.68976245 21.20314857 18 16 C16.82861607 15.00552989 15.66218679 14.00520295 14.5 13 C13.91476562 12.49855469 13.32953125 11.99710938 12.7265625 11.48046875 C11.61497184 10.52731748 10.50542714 9.57177228 9.3984375 8.61328125 C7.05546161 6.6127403 4.78653271 4.87470398 2.125 3.3125 C1.42375 2.879375 0.7225 2.44625 0 2 C0 1.34 0 0.68 0 0 Z " fill="#A93C9B" transform="translate(845,137)"/>
<path d="M0 0 C2.12446201 3.18669302 2.19818981 3.72650309 2 7.3125 C1.90929443 11.35537678 2.64624795 14.16436919 4 18 C4.57351708 21.05738244 5.06187377 24.12093208 5.53515625 27.1953125 C5.91960608 29.51493416 6.40955022 31.72794926 7 34 C7.11859375 34.62777344 7.2371875 35.25554688 7.359375 35.90234375 C9.40786772 46.57499081 14.05067155 56.42842731 18.7644043 66.15087891 C21 70.79818936 21 70.79818936 21 73 C21.66 73 22.32 73 23 73 C23.33 74.65 23.66 76.3 24 78 C24.66 78 25.32 78 26 78 C27.40234375 80.046875 27.40234375 80.046875 28.9375 82.75 C30.79575179 86.00075249 32.69068578 89.04959258 35 92 C34.67 92.66 34.34 93.32 34 94 C27.48257244 85.76269572 21.89043764 77.30487912 17 68 C16.66613281 67.37561035 16.33226563 66.7512207 15.98828125 66.10791016 C7.72661958 50.45111167 2.71014569 33.40342986 0 15.9375 C-0.12479736 15.13530029 -0.24959473 14.33310059 -0.37817383 13.5065918 C-1.02046487 8.74796041 -0.90237058 4.71864615 0 0 Z " fill="#5A52F3" transform="translate(107,759)"/>
<path d="M0 0 C2.64510618 1.27498185 5.10475498 2.65651989 7.546875 4.28515625 C8.21799316 4.72859375 8.88911133 5.17203125 9.58056641 5.62890625 C10.29647949 6.10199219 11.01239258 6.57507813 11.75 7.0625 C28.53482185 17.99714412 46.31788408 27.6883392 65 35 C65 35.33 65 35.66 65 36 C63.02 36 61.04 36 59 36 C59 35.34 59 34.68 59 34 C53.52225234 32.41678933 53.52225234 32.41678933 48 31 C48 30.34 48 29.68 48 29 C46.68 29 45.36 29 44 29 C44 28.34 44 27.68 44 27 C42.68 27 41.36 27 40 27 C40 26.34 40 25.68 40 25 C39.43667969 24.88140625 38.87335938 24.7628125 38.29296875 24.640625 C30.78537148 22.54310208 23.74561155 17.82903071 17 14 C17 13.34 17 12.68 17 12 C16.01 12 15.02 12 14 12 C14 11.34 14 10.68 14 10 C13.44828125 9.90589844 12.8965625 9.81179688 12.328125 9.71484375 C9.37594435 8.8083856 7.27278656 7.33656482 4.75 5.5625 C3.85796875 4.94503906 2.9659375 4.32757812 2.046875 3.69140625 C1.37140625 3.13324219 0.6959375 2.57507813 0 2 C0 1.34 0 0.68 0 0 Z " fill="#6F49DC" transform="translate(354,745)"/>
<path d="M0 0 C19.8824833 -0.88665128 41.28650102 8.80223619 58.5625 17.75 C59.47386719 18.22195801 60.38523437 18.69391602 61.32421875 19.18017578 C67.74256118 22.61384177 67.74256118 22.61384177 70 26 C66.20710452 24.54977526 62.62996221 22.81498111 59 21 C58.01 20.67 57.02 20.34 56 20 C56 19.34 56 18.68 56 18 C55.46632813 17.82984375 54.93265625 17.6596875 54.3828125 17.484375 C50.3795252 16.18226771 46.45032902 14.80348458 42.5625 13.1875 C37.72238034 11.22713757 32.81669848 9.49601327 27.875 7.8125 C26.7468689 7.41937622 26.7468689 7.41937622 25.59594727 7.01831055 C20.70037503 5.37358275 16.13268661 4.54638277 11 4 C10.01 3.67 9.02 3.34 8 3 C7.01 3 6.02 3 5 3 C5 2.34 5 1.68 5 1 C3.35 1 1.7 1 0 1 C0 0.67 0 0.34 0 0 Z " fill="#A6369A" transform="translate(774,111)"/>
<path d="M0 0 C11.1266495 -0.02317143 22.25329325 -0.04093962 33.37996197 -0.05181217 C38.54652954 -0.05703047 43.7130806 -0.06410906 48.87963867 -0.07543945 C53.86574783 -0.08630567 58.85184111 -0.09228478 63.8379612 -0.09487724 C65.74014346 -0.09672474 67.64232485 -0.10033242 69.54450035 -0.10573006 C72.2089666 -0.11299 74.87336725 -0.11398884 77.5378418 -0.11352539 C78.7171225 -0.1189183 78.7171225 -0.1189183 79.92022705 -0.12442017 C83.73986021 -0.11723224 87.28721308 0.07156615 91 1 C91 1.33 91 1.66 91 2 C89.1128125 2.2784375 89.1128125 2.2784375 87.1875 2.5625 C86.47980469 2.66691406 85.77210938 2.77132812 85.04296875 2.87890625 C83 3 83 3 80 2 C77.43055764 1.88035662 74.88612619 1.81474376 72.31567383 1.79467773 C71.14458824 1.77982834 71.14458824 1.77982834 69.94984436 1.76467896 C67.36893752 1.73308823 64.78801227 1.70831612 62.20703125 1.68359375 C60.41769431 1.66302213 58.6283622 1.6420256 56.83903503 1.62062073 C52.12907834 1.56542158 47.41907794 1.51600277 42.70904541 1.46777344 C37.90299591 1.41754269 33.09700988 1.36186483 28.29101562 1.30664062 C18.86073131 1.19908542 9.43039188 1.09763456 0 1 C0 0.67 0 0.34 0 0 Z " fill="#9A2495" transform="translate(682,109)"/>
<path d="M0 0 C0.33 0 0.66 0 1 0 C0.07303628 17.30332273 -8.16277518 35.3391662 -17 50 C-17.33 49.34 -17.66 48.68 -18 48 C-16.94117471 45.66644371 -15.83573406 43.44029715 -14.625 41.1875 C-12.49004258 37.19696435 -10.60616272 33.54622042 -10 29 C-9.34 29 -8.68 29 -8 29 C-7.87625 27.989375 -7.7525 26.97875 -7.625 25.9375 C-7.01914665 22.12062388 -6.12806088 18.68499888 -5 15 C-4.34 15 -3.68 15 -3 15 C-2.86722656 14.25234375 -2.73445312 13.5046875 -2.59765625 12.734375 C-2.42105469 11.74953125 -2.24445312 10.7646875 -2.0625 9.75 C-1.80146484 8.28820312 -1.80146484 8.28820312 -1.53515625 6.796875 C-1.09620271 4.50278205 -0.59651408 2.25708029 0 0 Z " fill="#AA44AD" transform="translate(913,784)"/>
<path d="M0 0 C4.25142649 3.90795397 7.21060635 8.06755785 10.1875 13 C10.65510742 13.77093994 11.12271484 14.54187988 11.60449219 15.33618164 C15.2960861 21.5535051 18.60437619 27.92861287 21.75 34.4375 C22.19239014 35.34306641 22.63478027 36.24863281 23.09057617 37.18164062 C23.68769409 38.45104492 23.68769409 38.45104492 24.296875 39.74609375 C24.65104492 40.49560303 25.00521484 41.2451123 25.37011719 42.01733398 C26 44 26 44 25 47 C23.49373883 43.87797994 21.99606757 40.75191601 20.5 37.625 C20.07074219 36.73554688 19.64148438 35.84609375 19.19921875 34.9296875 C18.79316406 34.07890625 18.38710938 33.228125 17.96875 32.3515625 C17.59169922 31.56604004 17.21464844 30.78051758 16.82617188 29.97119141 C16 28 16 28 16 26 C15.01 25.67 14.02 25.34 13 25 C12.67 23.02 12.34 21.04 12 19 C11.34 19 10.68 19 10 19 C9.75507812 18.30261719 9.51015625 17.60523438 9.2578125 16.88671875 C7.8056922 13.55405755 5.94492497 10.79868208 3.875 7.8125 C0 2.22064057 0 2.22064057 0 0 Z " fill="#9137AE" transform="translate(683,412)"/>
<path d="M0 0 C1.02996094 0.26554688 2.05992187 0.53109375 3.12109375 0.8046875 C13.37529672 3.37278946 23.48079241 4.99942456 34 6 C34 6.66 34 7.32 34 8 C27.36720718 8.23576278 21.26007555 7.35216665 14.75 6.125 C13.7703125 5.95097656 12.790625 5.77695312 11.78125 5.59765625 C7.50910735 4.80976109 3.83359325 4.11367475 0 2 C0 1.34 0 0.68 0 0 Z " fill="#6759F0" transform="translate(230,907)"/>
<path d="M0 0 C0.66 0 1.32 0 2 0 C3.00460531 2.12282669 4.00355602 4.24833021 5 6.375 C5.556875 7.55835938 6.11375 8.74171875 6.6875 9.9609375 C8 13 8 13 8 15 C8.66 15 9.32 15 10 15 C10.33 16.65 10.66 18.3 11 20 C11.66 20 12.32 20 13 20 C14.40234375 22.046875 14.40234375 22.046875 15.9375 24.75 C17.79575179 28.00075249 19.69068578 31.04959258 22 34 C21.67 34.66 21.34 35.32 21 36 C0 9.45833333 0 9.45833333 0 0 Z " fill="#524DF4" transform="translate(120,817)"/>
<path d="M0 0 C3.01559576 0.3350662 4.59078589 0.57885813 6.7421875 2.79296875 C9.48757151 5.47660537 12.540845 7.22552925 15.875 9.0625 C16.77412109 9.57006836 16.77412109 9.57006836 17.69140625 10.08789062 C22.99497694 13.06180174 28.31727223 15.82719232 34 18 C34 18.66 34 19.32 34 20 C28.83763688 19.43440245 24.81385398 16.94760481 20.375 14.4375 C19.5804541 13.99220947 18.7859082 13.54691895 17.96728516 13.08813477 C11.66665636 9.50029447 5.55633637 5.68739389 0 1 C0 0.67 0 0.34 0 0 Z " fill="#6C45D7" transform="translate(386,706)"/>
<path d="M0 0 C0.99 0.33 1.98 0.66 3 1 C0.35976118 3.09763242 -2.12245603 4.63694198 -5.23046875 5.9375 C-6.03419922 6.27523437 -6.83792969 6.61296875 -7.66601562 6.9609375 C-8.49810547 7.30382812 -9.33019531 7.64671875 -10.1875 8 C-11.00025391 8.34289062 -11.81300781 8.68578125 -12.65039062 9.0390625 C-16.68676399 10.72168751 -20.74909585 12.32960704 -24.86328125 13.8125 C-25.56364502 14.06644531 -26.26400879 14.32039062 -26.9855957 14.58203125 C-29.31355488 15.0650595 -30.76343592 14.73747353 -33 14 C-31.06441401 13.32779649 -29.12645628 12.66241923 -27.1875 12 C-26.10855469 11.62875 -25.02960937 11.2575 -23.91796875 10.875 C-21 10 -21 10 -18 10 C-18 9.34 -18 8.68 -18 8 C-15.70967689 7.16280617 -13.41789043 6.3301071 -11.125 5.5 C-10.47402344 5.26152344 -9.82304688 5.02304687 -9.15234375 4.77734375 C-4.2265625 3 -4.2265625 3 -2 3 C-2 2.34 -2 1.68 -2 1 C-1.34 0.67 -0.68 0.34 0 0 Z " fill="#AC45B4" transform="translate(830,893)"/>
<path d="M0 0 C7.25869511 1.87804948 13.56531652 4.58378674 20.125 8.1875 C20.98609375 8.65091797 21.8471875 9.11433594 22.734375 9.59179688 C24.82749217 10.71975446 26.91573044 11.85580213 29 13 C26 14 26 14 22.5234375 12.48828125 C21.13568031 11.77252775 19.75308713 11.04669952 18.375 10.3125 C16.9344595 9.56473604 15.49305725 8.8186298 14.05078125 8.07421875 C13.35549316 7.71376465 12.66020508 7.35331055 11.94384766 6.98193359 C9.52480145 5.75995371 7.05929036 4.67776621 4.5625 3.625 C1 2 1 2 0 0 Z " fill="#8D32AB" transform="translate(589,340)"/>
<path d="M0 0 C3.11229733 2.54642509 3.77883932 5.25510724 5 9 C5.66 9.33 6.32 9.66 7 10 C8.09243066 12.02548814 9.10096652 14.09669625 10.0625 16.1875 C10.58972656 17.31542969 11.11695313 18.44335938 11.66015625 19.60546875 C12.91767158 22.79141868 13.5836523 25.61267732 14 29 C11.63418589 26.04023769 9.93528876 23.06300504 8.30078125 19.6484375 C7.81416016 18.63265625 7.32753906 17.616875 6.82617188 16.5703125 C6.0769043 14.98863281 6.0769043 14.98863281 5.3125 13.375 C4.54583008 11.78171875 4.54583008 11.78171875 3.76367188 10.15625 C0 2.2570615 0 2.2570615 0 0 Z " fill="#9435A9" transform="translate(741,409)"/>
<path d="M0 0 C0.33 0 0.66 0 1 0 C1.06058594 1.12019531 1.12117188 2.24039063 1.18359375 3.39453125 C1.26801424 4.86719984 1.35266149 6.33985544 1.4375 7.8125 C1.47681641 8.55048828 1.51613281 9.28847656 1.55664062 10.04882812 C1.74381035 13.23071342 1.98720793 15.96162378 3 19 C2.91343435 21.39870613 2.76001509 23.79537281 2.5625 26.1875 C2.46066406 27.45980469 2.35882813 28.73210938 2.25390625 30.04296875 C2.17011719 31.01878906 2.08632813 31.99460937 2 33 C1.67 33 1.34 33 1 33 C-0.09266243 25.97942879 -0.11532882 19.09531697 -0.0625 12 C-0.05798828 10.84371094 -0.05347656 9.68742188 -0.04882812 8.49609375 C-0.03712529 5.66400775 -0.02072996 2.83203189 0 0 Z " fill="#6933CB" transform="translate(299,527)"/>
<path d="M0 0 C7.42857143 -0.14285714 7.42857143 -0.14285714 11 1 C11 1.66 11 2.32 11 3 C14.3 3.99 17.6 4.98 21 6 C17.79288845 7.06903718 17.11557073 6.97918933 14.0234375 6.07421875 C13.270625 5.85443359 12.5178125 5.63464844 11.7421875 5.40820312 C10.96101562 5.17037109 10.17984375 4.93253906 9.375 4.6875 C8.58609375 4.46126953 7.7971875 4.23503906 6.984375 4.00195312 C4.96858864 3.40102712 2.98109675 2.70693874 1 2 C0.67 1.34 0.34 0.68 0 0 Z " fill="#963EAD" transform="translate(582,284)"/>
<path d="M0 0 C1.5625 1.625 1.5625 1.625 3 4 C2.6875 7.25 2.6875 7.25 2 10 C2.66 10 3.32 10 4 10 C4.33 11.98 4.66 13.96 5 16 C4.34 16.33 3.68 16.66 3 17 C2.29753005 15.1096624 1.61359151 13.21243172 0.9375 11.3125 C0.55464844 10.25675781 0.17179688 9.20101563 -0.22265625 8.11328125 C-1.0233052 4.90666208 -0.9237249 3.1313693 0 0 Z " fill="#973EAD" transform="translate(762,454)"/>
<path d="M0 0 C6.86036401 0.65965039 13.34443923 2.2362764 20 4 C20 4.33 20 4.66 20 5 C13.07 4.505 13.07 4.505 6 4 C6 3.34 6 2.68 6 2 C3.03 1.505 3.03 1.505 0 1 C0 0.67 0 0.34 0 0 Z " fill="#7847D8" transform="translate(440,788)"/>
<path d="M0 0 C3.39815137 1.13271712 4.28644916 2.1909314 6.5625 4.875 C7.16191406 5.57367187 7.76132813 6.27234375 8.37890625 6.9921875 C10 9 10 9 12 12 C8.60140297 10.53033642 6.35036291 8.61962486 3.75 6 C3.04359375 5.29875 2.3371875 4.5975 1.609375 3.875 C0 2 0 2 0 0 Z " fill="#5E56F4" transform="translate(148,860)"/>
<path d="M0 0 C1.5778125 0.680625 1.5778125 0.680625 3.1875 1.375 C6.10825453 2.62760001 9.04294668 3.83510021 12 5 C12 5.66 12 6.32 12 7 C7.24518354 6.42365861 4.02951788 4.44931479 0 2 C0 1.34 0 0.68 0 0 Z " fill="#744DD8" transform="translate(408,719)"/>
<path d="M0 0 C0.66 0.66 1.32 1.32 2 2 C1.9765625 4.8203125 1.9765625 4.8203125 1.625 8.125 C1.51414062 9.22070312 1.40328125 10.31640625 1.2890625 11.4453125 C1.19367187 12.28835938 1.09828125 13.13140625 1 14 C-1.02907167 10.6853333 -1.12742133 8.5684021 -0.625 4.75 C-0.51414062 3.85796875 -0.40328125 2.9659375 -0.2890625 2.046875 C-0.19367187 1.37140625 -0.09828125 0.6959375 0 0 Z " fill="#9240B7" transform="translate(722,548)"/>
<path d="M0 0 C0.33 0 0.66 0 1 0 C2.20568053 4.67201205 2.09382426 9.21496292 2 14 C0.11063523 12.40895598 -0.90799002 11.54329705 -1.328125 9.0625 C-1.30234375 8.381875 -1.2765625 7.70125 -1.25 7 C-1.23453125 6.319375 -1.2190625 5.63875 -1.203125 4.9375 C-1 3 -1 3 0 0 Z " fill="#9655C1" transform="translate(533,426)"/>
<path d="M0 0 C1.77155654 0.11429397 3.54226229 0.24183037 5.3125 0.375 C6.79169922 0.47941406 6.79169922 0.47941406 8.30078125 0.5859375 C11 1 11 1 14 3 C8.87160006 4.81975482 4.82315618 2.8599099 0 1 C0 0.67 0 0.34 0 0 Z " fill="#8C38B0" transform="translate(548,329)"/>
<path d="M0 0 C0.33 0 0.66 0 1 0 C2.18609365 5.6932495 1.66251802 9.42567486 0 15 C-0.33 15 -0.66 15 -1 15 C-1.02715383 13.25008666 -1.04646551 11.50005055 -1.0625 9.75 C-1.07410156 8.77546875 -1.08570313 7.8009375 -1.09765625 6.796875 C-1.01195577 4.34241322 -0.70706066 2.33831086 0 0 Z " fill="#6E37CA" transform="translate(301,506)"/>
<path d="M0 0 C1.62723299 0.45034123 3.25173664 0.91055354 4.875 1.375 C5.77992188 1.63023437 6.68484375 1.88546875 7.6171875 2.1484375 C10 3 10 3 12 5 C10 6 10 6 7.87109375 5.29296875 C7.06800781 4.92816406 6.26492188 4.56335938 5.4375 4.1875 C4.63183594 3.83042969 3.82617188 3.47335937 2.99609375 3.10546875 C1 2 1 2 0 0 Z " fill="#923DB1" transform="translate(589,340)"/>
<path d="M0 0 C1.62566606 0.47690204 3.25051311 0.95659666 4.875 1.4375 C5.77992188 1.70433594 6.68484375 1.97117187 7.6171875 2.24609375 C10 3 10 3 12 4 C12 4.66 12 5.32 12 6 C7.24518354 5.42365861 4.02951788 3.44931479 0 1 C0 0.67 0 0.34 0 0 Z " fill="#9339AB" transform="translate(617,296)"/>
<path d="M0 0 C2.64 0.33 5.28 0.66 8 1 C8 1.66 8 2.32 8 3 C9.32 3.66 10.64 4.32 12 5 C7.43545749 4.45660208 4.0271824 3.20536179 0 1 C0 0.67 0 0.34 0 0 Z " fill="#933BAC" transform="translate(604,291)"/>
<path d="M0 0 C3.3 0.99 6.6 1.98 10 3 C9.34 3.66 8.68 4.32 8 5 C4.7 4.01 1.4 3.02 -2 2 C-1.34 1.34 -0.68 0.68 0 0 Z " fill="#AB41A0" transform="translate(804,117)"/>
<path d="M0 0 C1.485 0.99 1.485 0.99 3 2 C3 2.66 3 3.32 3 4 C3.66 4.33 4.32 4.66 5 5 C5 6.98 5 8.96 5 11 C2.03947516 7.63576723 1.07710178 4.30840713 0 0 Z " fill="#6C41D3" transform="translate(314,614)"/>
<path d="M0 0 C1.98 0.99 1.98 0.99 4 2 C3.34 3.98 2.68 5.96 2 8 C0.23537317 4.91190305 0 3.76687864 0 0 Z " fill="#655EF4" transform="translate(108,778)"/>
<path d="M0 0 C0.33 0.99 0.66 1.98 1 3 C0.00390625 4.82421875 0.00390625 4.82421875 -1.4375 6.6875 C-1.91058594 7.31011719 -2.38367188 7.93273437 -2.87109375 8.57421875 C-3.24363281 9.04472656 -3.61617187 9.51523437 -4 10 C-5 7 -5 7 -5 5 C-4.01 5 -3.02 5 -2 5 C-1.34 3.35 -0.68 1.7 0 0 Z " fill="#AC48AF" transform="translate(893,835)"/>
<path d="M0 0 C1.36207958 2.72415916 0.86166193 4.12779357 0 7 C-0.99 7.66 -1.98 8.32 -3 9 C-2.5020163 5.26512223 -2.12508244 3.18762365 0 0 Z " fill="#7E3DC0" transform="translate(119,208)"/>
<path d="M0 0 C0.99 0.33 1.98 0.66 3 1 C0.14693203 3.32472205 -2.54074837 4.7508258 -6 6 C-6 5.34 -6 4.68 -6 4 C-4.68 3.67 -3.36 3.34 -2 3 C-2 2.34 -2 1.68 -2 1 C-1.34 0.67 -0.68 0.34 0 0 Z " fill="#B255BA" transform="translate(830,893)"/>
<path d="M0 0 C3.96 1.98 3.96 1.98 8 4 C7.01 4.66 6.02 5.32 5 6 C2.5 4.6875 2.5 4.6875 0 3 C0 2.01 0 1.02 0 0 Z " fill="#645AF2" transform="translate(186,889)"/>
<path d="M0 0 C0.99 1.32 1.98 2.64 3 4 C2.34 5.32 1.68 6.64 1 8 C-1 5 -1 5 -0.625 2.3125 C-0.41875 1.549375 -0.2125 0.78625 0 0 Z " fill="#9D4AB2" transform="translate(762,454)"/>
<path d="M0 0 C0.97687451 3.03916514 1.105817 4.98413546 0 8 C-0.66 8.66 -1.32 9.32 -2 10 C-1.85950482 8.52031676 -1.71245174 7.04125484 -1.5625 5.5625 C-1.48128906 4.73878906 -1.40007812 3.91507813 -1.31640625 3.06640625 C-1 1 -1 1 0 0 Z " fill="#7C3BBF" transform="translate(113,224)"/>
</svg>
